<svg width="2561" height="1585" viewBox="0 0 2561 1585" fill="none" xmlns="http://www.w3.org/2000/svg">
<path d="M705.829 937.989C714.515 972.292 738.823 1000.95 775.426 1023.4C812.031 1045.84 860.905 1062.05 918.645 1071.45C1034.12 1090.24 1184.97 1081.76 1343.81 1041.54C1502.65 1001.31 1639.35 936.973 1731.97 865.485C1778.28 829.741 1813.55 792.225 1835.06 755.062C1856.56 717.903 1864.3 681.127 1855.62 646.824C1846.93 612.522 1822.62 583.861 1786.02 561.417C1749.41 538.972 1700.54 522.763 1642.8 513.368C1527.32 494.577 1376.47 503.055 1217.63 543.278C1058.8 583.5 922.095 647.84 829.477 719.328C783.168 755.072 747.899 792.588 726.389 829.751C704.88 866.911 697.142 903.686 705.829 937.989Z" stroke="url(#paint0_linear_18_128)"/>
<path d="M445.222 1003.98C457.862 1053.9 493.228 1095.58 546.443 1128.21C599.661 1160.84 670.702 1184.4 754.613 1198.06C922.434 1225.36 1141.64 1213.04 1372.44 1154.59C1603.24 1096.15 1801.89 1002.65 1936.49 898.765C2003.79 846.819 2055.05 792.29 2086.33 738.262C2117.6 684.236 2128.86 630.743 2116.22 580.83C2103.58 530.918 2068.22 489.233 2015 456.602C1961.78 423.97 1890.74 400.413 1806.83 386.759C1639.01 359.452 1419.8 371.774 1189 430.22C958.204 488.667 759.554 582.16 624.956 686.049C557.657 737.995 506.39 792.524 475.118 846.552C443.847 900.578 432.583 954.071 445.222 1003.98Z" stroke="url(#paint1_linear_18_128)"/>
<path d="M128.113 1084.29C145.562 1153.19 194.384 1210.73 267.814 1255.75C341.246 1300.78 439.26 1333.28 555.017 1352.11C786.528 1389.79 1088.91 1372.79 1407.28 1292.16C1725.65 1211.54 1999.67 1082.58 2185.35 939.259C2278.19 867.6 2348.93 792.368 2392.08 717.818C2435.23 643.271 2450.78 569.435 2433.33 500.528C2415.88 431.62 2367.06 374.087 2293.63 329.061C2220.2 284.034 2122.18 251.535 2006.43 232.699C1774.92 195.029 1472.53 212.028 1154.17 292.65C835.799 373.271 561.771 502.238 376.092 645.555C283.252 717.214 212.519 792.446 169.368 866.996C126.218 941.543 110.663 1015.38 128.113 1084.29Z" stroke="url(#paint2_linear_18_128)"/>
<defs>
<linearGradient id="paint0_linear_18_128" x1="1815.8" y1="626.959" x2="819.739" y2="1040.19" gradientUnits="userSpaceOnUse">
<stop stop-color="#484848"/>
<stop offset="0.491388" stop-color="#484848" stop-opacity="0.36"/>
<stop offset="1" stop-color="#484848"/>
</linearGradient>
<linearGradient id="paint1_linear_18_128" x1="2058.15" y1="552.022" x2="610.946" y2="1152.42" gradientUnits="userSpaceOnUse">
<stop stop-color="#484848"/>
<stop offset="0.491388" stop-color="#484848" stop-opacity="0.36"/>
<stop offset="1" stop-color="#484848"/>
</linearGradient>
<linearGradient id="paint2_linear_18_128" x1="2353.05" y1="460.839" x2="356.883" y2="1288.98" gradientUnits="userSpaceOnUse">
<stop stop-color="#484848"/>
<stop offset="0.491388" stop-color="#484848" stop-opacity="0.36"/>
<stop offset="1" stop-color="#484848"/>
</linearGradient>
</defs>
</svg>
