<svg width="250" height="82" viewBox="0 0 250 82" fill="none" xmlns="http://www.w3.org/2000/svg">
<path fill-rule="evenodd" clip-rule="evenodd" d="M32.1152 12.2246L22.5189 5.99447C21.5761 5.38236 20.3155 5.65046 19.7034 6.5933C19.4597 6.9687 19.3465 7.41395 19.3814 7.86016L20.2462 18.9303C20.3337 20.051 21.3132 20.8885 22.4339 20.8009C22.7246 20.7782 23.0071 20.6933 23.2621 20.5519L31.9936 15.712C32.9768 15.167 33.332 13.9282 32.7871 12.945C32.6255 12.6535 32.3948 12.4061 32.1152 12.2246Z" fill="#FFCE00"/>
<path fill-rule="evenodd" clip-rule="evenodd" d="M52.5553 13.6122L49.2088 2.67128C48.88 1.59633 47.7421 0.991453 46.6671 1.32025C46.2391 1.45116 45.8662 1.71949 45.6061 2.08371L39.1528 11.1198C38.4995 12.0346 38.7115 13.3058 39.6263 13.9591C39.8636 14.1285 40.1346 14.245 40.4208 14.3007L50.2206 16.2056C51.3241 16.4201 52.3925 15.6994 52.607 14.596C52.6706 14.2688 52.6528 13.931 52.5553 13.6122Z" fill="#FFCE00"/>
<path fill-rule="evenodd" clip-rule="evenodd" d="M67.3201 27.8132L71.7892 17.2809C72.2283 16.246 71.7454 15.0512 70.7106 14.6121C70.2986 14.4373 69.8404 14.4031 69.407 14.515L58.6553 17.2889C57.5668 17.5697 56.9121 18.6798 57.1929 19.7683C57.2658 20.0506 57.3984 20.3141 57.582 20.5407L63.8646 28.2991C64.572 29.1727 65.8537 29.3074 66.7273 28.6C66.9863 28.3902 67.1899 28.1201 67.3201 27.8132Z" fill="#FFCE00"/>
<path fill-rule="evenodd" clip-rule="evenodd" d="M38.3998 70.8766L45.2866 80.0132C45.9632 80.9108 47.2394 81.09 48.1371 80.4134C48.4945 80.144 48.7532 79.7643 48.873 79.3331L51.8466 68.6348C52.1476 67.5518 51.5136 66.4297 50.4306 66.1287C50.1496 66.0506 49.8551 66.0338 49.5671 66.0794L39.7068 67.6411C38.5965 67.817 37.839 68.8596 38.0149 69.9699C38.067 70.2991 38.1992 70.6104 38.3998 70.8766Z" fill="#FFCE00"/>
<path fill-rule="evenodd" clip-rule="evenodd" d="M19.6668 62.582L19.0695 74.0077C19.0108 75.1303 19.8732 76.0879 20.9958 76.1466C21.4428 76.17 21.885 76.0454 22.254 75.7921L31.4086 69.5081C32.3353 68.8719 32.5709 67.6049 31.9348 66.6781C31.7697 66.4377 31.5549 66.2355 31.305 66.0853L22.7477 60.9436C21.7841 60.3647 20.5337 60.6764 19.9547 61.64C19.7831 61.9257 19.6842 62.2492 19.6668 62.582Z" fill="#FFCE00"/>
<path fill-rule="evenodd" clip-rule="evenodd" d="M10.6498 44.1874L2.84794 52.556C2.0814 53.3783 2.12655 54.6662 2.94877 55.4327C3.27614 55.7379 3.69498 55.9267 4.14046 55.9699L15.1926 57.0405C16.3114 57.1489 17.3063 56.3297 17.4147 55.2109C17.4428 54.9206 17.4082 54.6277 17.3133 54.352L14.0631 44.9127C13.6971 43.8498 12.5388 43.2848 11.4759 43.6508C11.1608 43.7593 10.8771 43.9436 10.6498 44.1874Z" fill="#FFCE00"/>
<path fill-rule="evenodd" clip-rule="evenodd" d="M15.5642 24.2997L4.20839 25.6955C3.09267 25.8326 2.29937 26.8483 2.43651 27.964C2.49112 28.4082 2.69061 28.822 3.00413 29.1414L10.7823 37.0658C11.5698 37.868 12.8585 37.88 13.6607 37.0925C13.8688 36.8883 14.0306 36.6416 14.1351 36.3694L17.7128 27.0493C18.1156 25.9998 17.5914 24.8225 16.542 24.4196C16.2308 24.3002 15.8951 24.259 15.5642 24.2997Z" fill="#FFCE00"/>
<path d="M40.6069 47.9275V55.3057H38.4443C37.7418 55.3057 37.1722 55.8753 37.1722 56.5779V58.8677C37.1722 59.5702 36.6027 60.1398 35.9001 60.1398H31.0661C30.3635 60.1398 29.7939 59.5702 29.7939 58.8677V49.1996C29.7939 48.497 30.3635 47.9275 31.0661 47.9275H40.6069ZM29.7939 30.8811V24.7749C29.7939 24.0724 30.3635 23.5028 31.0661 23.5028H40.6069C49.3891 23.5028 56.5084 30.6221 56.5084 39.4043C56.5084 48.0986 49.5308 55.1632 40.8699 55.3036L40.6069 55.3057V47.9275C45.3142 47.9275 49.1301 44.1115 49.1301 39.4043C49.1301 34.7441 45.3901 30.9575 40.7479 30.8822L40.6069 30.8811H29.7939Z" fill="#5C5C5C"/>
<path d="M35.9001 26.2052H31.0661C30.3635 26.2052 29.7939 26.7747 29.7939 27.4773V38.9264C29.7939 39.6289 30.3635 40.1985 31.0661 40.1985H35.9001C36.6027 40.1985 37.1722 39.6289 37.1722 38.9264V27.4773C37.1722 26.7747 36.6027 26.2052 35.9001 26.2052Z" fill="#5C5C5C"/>
<path d="M75.3507 24.9381L80.5518 24.9075C81.087 24.9043 81.567 25.2365 81.7525 25.7385L94.2104 59.4416C94.454 60.1006 94.1173 60.8322 93.4583 61.0758C93.3173 61.128 93.1682 61.1547 93.0178 61.1547L87.6742 61.1572C87.1408 61.1574 86.6639 60.8249 86.4797 60.3243L78.7094 39.2006C78.4669 38.5412 77.7357 38.2033 77.0763 38.4458C76.7489 38.5663 76.4853 38.816 76.3472 39.1364L75.4644 41.1854L70.376 34.952L74.1822 25.7251C74.3776 25.2513 74.8382 24.9411 75.3507 24.9381Z" fill="#5C5C5C"/>
<path d="M75.4373 28.6082L77.6258 36.2241L67.2704 60.3866C67.0699 60.8543 66.61 61.1576 66.1011 61.1576H61.1012C60.3986 61.1576 59.8291 60.588 59.8291 59.8854C59.8291 59.7148 59.8634 59.5459 59.93 59.3888L73.0435 28.463C73.3178 27.8161 74.0644 27.5141 74.7113 27.7884C75.0645 27.9382 75.3313 28.2395 75.4373 28.6082Z" fill="#5C5C5C"/>
<path d="M86.7125 49.6123H78.5709C77.8684 49.6123 77.2988 50.1819 77.2988 50.8844V55.7185C77.2988 56.421 77.8684 56.9906 78.5709 56.9906H86.7125C87.4151 56.9906 87.9846 56.421 87.9846 55.7185V50.8844C87.9846 50.1819 87.4151 49.6123 86.7125 49.6123Z" fill="#5C5C5C"/>
<path d="M234.995 24.9021C235.527 24.9021 236.003 25.2331 236.188 25.7318L246.592 53.7792H248.728C249.431 53.7792 250.001 54.3487 250.001 55.0513V59.8853C250.001 60.5879 249.431 61.1574 248.728 61.1574H242.877C242.858 61.1574 242.839 61.157 242.82 61.1562L242.131 61.1701C241.588 61.1811 241.098 60.8455 240.911 60.335L232.976 38.6259C232.771 38.0668 232.152 37.7792 231.593 37.9836C231.385 38.0598 231.206 38.198 231.081 38.377L221.59 60.4023C221.385 60.8776 220.912 61.1814 220.395 61.1707L219.745 61.1573C219.738 61.1574 219.731 61.1574 219.724 61.1574H213.872C213.17 61.1574 212.6 60.5879 212.6 59.8853V55.0513C212.6 54.3487 213.17 53.7792 213.872 53.7792H216.693L227.278 28.8154L228.56 25.6914C228.756 25.2139 229.22 24.9021 229.737 24.9021H234.995ZM136.273 24.9021C136.976 24.9021 137.545 25.4716 137.545 26.1742V31.0083C137.545 31.7108 136.976 32.2804 136.273 32.2804H119.227L119.227 59.7581C119.227 60.4607 118.657 61.0302 117.955 61.0302H113.121C112.418 61.0302 111.849 60.4607 111.849 59.7581V26.1742C111.849 25.4716 112.418 24.9021 113.121 24.9021H136.273Z" fill="#5C5C5C"/>
<path fill-rule="evenodd" clip-rule="evenodd" d="M232.445 53.8101H243.131C243.834 53.8101 244.403 54.3796 244.403 55.0822V59.9162C244.403 60.6188 243.834 61.1883 243.131 61.1883H232.445C231.743 61.1883 231.173 60.6188 231.173 59.9162V55.0822C231.173 54.3796 231.743 53.8101 232.445 53.8101Z" fill="#5C5C5C"/>
<path d="M189.388 24.9381L194.589 24.9075C195.124 24.9043 195.604 25.2365 195.79 25.7385L208.248 59.4416C208.491 60.1006 208.154 60.8322 207.495 61.0758C207.354 61.128 207.205 61.1547 207.055 61.1547L201.711 61.1572C201.178 61.1574 200.701 60.8249 200.517 60.3243L192.747 39.2006C192.504 38.5412 191.773 38.2033 191.113 38.4458C190.786 38.5663 190.522 38.816 190.384 39.1364L189.502 41.1854L184.413 34.952L188.219 25.7251C188.415 25.2513 188.875 24.9411 189.388 24.9381Z" fill="#5C5C5C"/>
<path d="M189.474 28.6082L191.663 36.2241L181.308 60.3866C181.107 60.8543 180.647 61.1576 180.138 61.1576H175.138C174.436 61.1576 173.866 60.588 173.866 59.8854C173.866 59.7148 173.901 59.5459 173.967 59.3888L187.081 28.463C187.355 27.8161 188.102 27.5141 188.748 27.7884C189.102 27.9382 189.368 28.2395 189.474 28.6082Z" fill="#5C5C5C"/>
<path d="M200.75 49.6123H192.609C191.906 49.6123 191.336 50.1819 191.336 50.8844V55.7185C191.336 56.421 191.906 56.9906 192.609 56.9906H200.75C201.453 56.9906 202.022 56.421 202.022 55.7185V50.8844C202.022 50.1819 201.453 49.6123 200.75 49.6123Z" fill="#5C5C5C"/>
<path d="M154.59 49.454V56.8322H152.427C151.725 56.8322 151.155 57.4018 151.155 58.1044V60.3942C151.155 61.0967 150.586 61.6663 149.883 61.6663H145.049C144.346 61.6663 143.777 61.0967 143.777 60.3942V50.7261C143.777 50.0235 144.346 49.454 145.049 49.454H154.59ZM143.777 32.4076V26.3014C143.777 25.5988 144.346 25.0293 145.049 25.0293H154.59C163.372 25.0293 170.491 32.1486 170.491 40.9308C170.491 49.6251 163.514 56.6897 154.853 56.8301L154.59 56.8322V49.454C159.297 49.454 163.113 45.638 163.113 40.9308C163.113 36.2706 159.373 32.484 154.731 32.4087L154.59 32.4076H143.777Z" fill="#5C5C5C"/>
<path d="M149.811 25.0295H144.977C144.275 25.0295 143.705 25.5991 143.705 26.3017V40.5494C143.705 41.2519 144.275 41.8215 144.977 41.8215H149.811C150.514 41.8215 151.083 41.2519 151.083 40.5494V26.3017C151.083 25.5991 150.514 25.0295 149.811 25.0295Z" fill="#5C5C5C"/>
</svg>
