<svg width="32" height="31" viewBox="0 0 32 31" fill="none" xmlns="http://www.w3.org/2000/svg">
<path d="M26.4646 4.54586C23.5386 1.62414 19.6479 0.0151367 15.5098 0.0151367C11.3717 0.0151367 7.48094 1.62414 4.55491 4.54586C1.62869 7.4674 0.0172119 11.3522 0.0172119 15.4839C0.0172119 19.6156 1.62869 23.5004 4.55491 26.4219C7.48094 29.3436 11.3717 30.9526 15.5098 30.9526C19.6479 30.9526 23.5386 29.3436 26.4646 26.4219C29.3908 23.5004 31.0023 19.6156 31.0023 15.4839C31.0023 11.3522 29.3908 7.4674 26.4646 4.54586ZM15.5098 28.5356C8.30209 28.5356 2.43792 22.6805 2.43792 15.4839C2.43792 8.28729 8.30209 2.43213 15.5098 2.43213C22.7174 2.43213 28.5816 8.28729 28.5816 15.4839C28.5816 22.6805 22.7174 28.5356 15.5098 28.5356ZM17.8299 16.1741L22.2337 20.5486L20.5263 22.2624L16.0697 17.835C15.8899 17.8778 15.7027 17.9009 15.5098 17.9009C14.1729 17.9009 13.0891 16.8187 13.0891 15.4839C13.0891 14.6145 13.549 13.8526 14.2389 13.4268V4.90955H15.4492H16.6596V13.3566C17.4163 13.7654 17.9305 14.5645 17.9305 15.4839C17.9305 15.7237 17.8949 15.9552 17.8299 16.1741Z" fill="#E2E6E9"/>
</svg>
